<mxfile host="app.diagrams.net" modified="2023-10-07T00:02:34.491Z" agent="Mozilla/5.0 (Windows NT 10.0; Win64; x64) AppleWebKit/537.36 (KHTML, like Gecko) Chrome/117.0.0.0 Safari/537.36" etag="wWSlq7_9l4DuWXWiueVX" version="22.0.4" type="device" pages="5">
  <diagram id="hWNWqVDDFxeC6t-d2fKQ" name="Page-1">
    <mxGraphModel dx="1804" dy="602" grid="1" gridSize="10" guides="1" tooltips="1" connect="1" arrows="1" fold="1" page="1" pageScale="1" pageWidth="850" pageHeight="1100" math="0" shadow="0">
      <root>
        <mxCell id="0" />
        <mxCell id="1" parent="0" />
        <mxCell id="qlcm9CMjg_V5LziN8JxU-1" value="VPC" style="points=[[0,0],[0.25,0],[0.5,0],[0.75,0],[1,0],[1,0.25],[1,0.5],[1,0.75],[1,1],[0.75,1],[0.5,1],[0.25,1],[0,1],[0,0.75],[0,0.5],[0,0.25]];outlineConnect=0;gradientColor=none;html=1;whiteSpace=wrap;fontSize=12;fontStyle=0;container=0;pointerEvents=0;collapsible=0;recursiveResize=0;shape=mxgraph.aws4.group;grIcon=mxgraph.aws4.group_vpc;strokeColor=#248814;fillColor=none;verticalAlign=top;align=left;spacingLeft=30;fontColor=#AAB7B8;dashed=0;" parent="1" vertex="1">
          <mxGeometry x="-100" y="230" width="590" height="440" as="geometry" />
        </mxCell>
        <mxCell id="qlcm9CMjg_V5LziN8JxU-2" value="" style="sketch=0;points=[[0,0,0],[0.25,0,0],[0.5,0,0],[0.75,0,0],[1,0,0],[0,1,0],[0.25,1,0],[0.5,1,0],[0.75,1,0],[1,1,0],[0,0.25,0],[0,0.5,0],[0,0.75,0],[1,0.25,0],[1,0.5,0],[1,0.75,0]];outlineConnect=0;fontColor=#232F3E;fillColor=#8C4FFF;strokeColor=#ffffff;dashed=0;verticalLabelPosition=bottom;verticalAlign=top;align=center;html=1;fontSize=12;fontStyle=0;aspect=fixed;shape=mxgraph.aws4.resourceIcon;resIcon=mxgraph.aws4.vpc;container=0;" parent="1" vertex="1">
          <mxGeometry x="360" y="240" width="68" height="68" as="geometry" />
        </mxCell>
        <mxCell id="qlcm9CMjg_V5LziN8JxU-3" value="Region" style="points=[[0,0],[0.25,0],[0.5,0],[0.75,0],[1,0],[1,0.25],[1,0.5],[1,0.75],[1,1],[0.75,1],[0.5,1],[0.25,1],[0,1],[0,0.75],[0,0.5],[0,0.25]];outlineConnect=0;gradientColor=none;html=1;whiteSpace=wrap;fontSize=12;fontStyle=0;container=1;pointerEvents=0;collapsible=0;recursiveResize=0;shape=mxgraph.aws4.group;grIcon=mxgraph.aws4.group_region;strokeColor=#147EBA;fillColor=none;verticalAlign=top;align=left;spacingLeft=30;fontColor=#147EBA;dashed=1;" parent="1" vertex="1">
          <mxGeometry x="-110" y="170" width="610" height="510" as="geometry" />
        </mxCell>
        <mxCell id="qlcm9CMjg_V5LziN8JxU-4" value="US West (Oregon)&#xa;us-west-2" style="text;whiteSpace=wrap;" parent="qlcm9CMjg_V5LziN8JxU-3" vertex="1">
          <mxGeometry x="30" y="20" width="130" height="50" as="geometry" />
        </mxCell>
        <mxCell id="qlcm9CMjg_V5LziN8JxU-5" value="Availability zone" style="sketch=0;outlineConnect=0;gradientColor=none;html=1;whiteSpace=wrap;fontSize=12;fontStyle=0;shape=mxgraph.aws4.group;grIcon=mxgraph.aws4.group_availability_zone;strokeColor=#545B64;fillColor=none;verticalAlign=top;align=left;spacingLeft=30;fontColor=#545B64;dashed=1;" parent="qlcm9CMjg_V5LziN8JxU-3" vertex="1">
          <mxGeometry x="310" y="150" width="280" height="340" as="geometry" />
        </mxCell>
        <mxCell id="qlcm9CMjg_V5LziN8JxU-6" value="Availability zone" style="sketch=0;outlineConnect=0;gradientColor=none;html=1;whiteSpace=wrap;fontSize=12;fontStyle=0;shape=mxgraph.aws4.group;grIcon=mxgraph.aws4.group_availability_zone;strokeColor=#545B64;fillColor=none;verticalAlign=top;align=left;spacingLeft=30;fontColor=#545B64;dashed=1;" parent="qlcm9CMjg_V5LziN8JxU-3" vertex="1">
          <mxGeometry x="20" y="150" width="280" height="340" as="geometry" />
        </mxCell>
        <mxCell id="qlcm9CMjg_V5LziN8JxU-7" value="Public subnet" style="points=[[0,0],[0.25,0],[0.5,0],[0.75,0],[1,0],[1,0.25],[1,0.5],[1,0.75],[1,1],[0.75,1],[0.5,1],[0.25,1],[0,1],[0,0.75],[0,0.5],[0,0.25]];outlineConnect=0;gradientColor=none;html=1;whiteSpace=wrap;fontSize=12;fontStyle=0;container=1;pointerEvents=0;collapsible=0;recursiveResize=0;shape=mxgraph.aws4.group;grIcon=mxgraph.aws4.group_security_group;grStroke=0;strokeColor=#248814;fillColor=#E9F3E6;verticalAlign=top;align=left;spacingLeft=30;fontColor=#248814;dashed=0;" parent="qlcm9CMjg_V5LziN8JxU-3" vertex="1">
          <mxGeometry x="320" y="190" width="260" height="290" as="geometry" />
        </mxCell>
        <mxCell id="qlcm9CMjg_V5LziN8JxU-8" value="" style="sketch=0;outlineConnect=0;fontColor=#232F3E;gradientColor=none;fillColor=#ED7100;strokeColor=none;dashed=0;verticalLabelPosition=bottom;verticalAlign=top;align=center;html=1;fontSize=12;fontStyle=0;aspect=fixed;pointerEvents=1;shape=mxgraph.aws4.instance2;" parent="qlcm9CMjg_V5LziN8JxU-7" vertex="1">
          <mxGeometry x="90" y="110" width="70" height="70" as="geometry" />
        </mxCell>
        <mxCell id="qlcm9CMjg_V5LziN8JxU-9" value="Public subnet" style="points=[[0,0],[0.25,0],[0.5,0],[0.75,0],[1,0],[1,0.25],[1,0.5],[1,0.75],[1,1],[0.75,1],[0.5,1],[0.25,1],[0,1],[0,0.75],[0,0.5],[0,0.25]];outlineConnect=0;gradientColor=none;html=1;whiteSpace=wrap;fontSize=12;fontStyle=0;container=1;pointerEvents=0;collapsible=0;recursiveResize=0;shape=mxgraph.aws4.group;grIcon=mxgraph.aws4.group_security_group;grStroke=0;strokeColor=#248814;fillColor=#E9F3E6;verticalAlign=top;align=left;spacingLeft=30;fontColor=#248814;dashed=0;" parent="qlcm9CMjg_V5LziN8JxU-3" vertex="1">
          <mxGeometry x="30" y="190" width="260" height="290" as="geometry" />
        </mxCell>
        <mxCell id="qlcm9CMjg_V5LziN8JxU-10" value="172.31.0.0/24" style="text;whiteSpace=wrap;align=center;fontSize=18;" parent="qlcm9CMjg_V5LziN8JxU-9" vertex="1">
          <mxGeometry y="30" width="147.5" height="40" as="geometry" />
        </mxCell>
        <mxCell id="qlcm9CMjg_V5LziN8JxU-11" value="" style="sketch=0;outlineConnect=0;fontColor=#232F3E;gradientColor=none;fillColor=#ED7100;strokeColor=none;dashed=0;verticalLabelPosition=bottom;verticalAlign=top;align=center;html=1;fontSize=12;fontStyle=0;aspect=fixed;pointerEvents=1;shape=mxgraph.aws4.instance2;" parent="qlcm9CMjg_V5LziN8JxU-9" vertex="1">
          <mxGeometry x="95" y="110" width="70" height="70" as="geometry" />
        </mxCell>
        <mxCell id="qlcm9CMjg_V5LziN8JxU-12" value="172.31.0.15" style="text;whiteSpace=wrap;align=center;fontSize=15;" parent="qlcm9CMjg_V5LziN8JxU-9" vertex="1">
          <mxGeometry x="56.25" y="180" width="147.5" height="40" as="geometry" />
        </mxCell>
        <mxCell id="qlcm9CMjg_V5LziN8JxU-13" value="CIDR 172.31.0.0/16" style="text;whiteSpace=wrap;align=center;fontSize=26;" parent="qlcm9CMjg_V5LziN8JxU-3" vertex="1">
          <mxGeometry x="187.5" y="80" width="235" height="50" as="geometry" />
        </mxCell>
        <mxCell id="qlcm9CMjg_V5LziN8JxU-14" value="172.31.1.0/24" style="text;whiteSpace=wrap;align=center;fontSize=18;" parent="qlcm9CMjg_V5LziN8JxU-3" vertex="1">
          <mxGeometry x="320" y="220" width="147.5" height="40" as="geometry" />
        </mxCell>
        <mxCell id="qlcm9CMjg_V5LziN8JxU-15" value="" style="sketch=0;outlineConnect=0;fontColor=#232F3E;gradientColor=none;fillColor=#8C4FFF;strokeColor=none;dashed=0;verticalLabelPosition=bottom;verticalAlign=top;align=center;html=1;fontSize=12;fontStyle=0;aspect=fixed;pointerEvents=1;shape=mxgraph.aws4.route_table;" parent="qlcm9CMjg_V5LziN8JxU-3" vertex="1">
          <mxGeometry x="20" y="100" width="51.31" height="50" as="geometry" />
        </mxCell>
        <mxCell id="qlcm9CMjg_V5LziN8JxU-16" value="Main Route Table" style="text;whiteSpace=wrap;align=center;fontSize=16;" parent="qlcm9CMjg_V5LziN8JxU-3" vertex="1">
          <mxGeometry x="71.31" y="110" width="147.5" height="40" as="geometry" />
        </mxCell>
        <mxCell id="qlcm9CMjg_V5LziN8JxU-17" value="172.31.1.11" style="text;whiteSpace=wrap;align=center;fontSize=15;" parent="qlcm9CMjg_V5LziN8JxU-3" vertex="1">
          <mxGeometry x="370" y="370" width="147.5" height="40" as="geometry" />
        </mxCell>
        <mxCell id="qlcm9CMjg_V5LziN8JxU-18" value="" style="sketch=0;outlineConnect=0;fontColor=#232F3E;gradientColor=none;fillColor=#8C4FFF;strokeColor=none;dashed=0;verticalLabelPosition=bottom;verticalAlign=top;align=center;html=1;fontSize=12;fontStyle=0;aspect=fixed;pointerEvents=1;shape=mxgraph.aws4.customer_gateway;" parent="qlcm9CMjg_V5LziN8JxU-3" vertex="1">
          <mxGeometry x="276" y="291" width="58" height="58" as="geometry" />
        </mxCell>
        <mxCell id="qlcm9CMjg_V5LziN8JxU-19" value="Local Router" style="text;whiteSpace=wrap;align=center;fontSize=16;" parent="qlcm9CMjg_V5LziN8JxU-3" vertex="1">
          <mxGeometry x="231.25" y="349" width="147.5" height="40" as="geometry" />
        </mxCell>
        <mxCell id="BfeUEpa1YJ_xbQGrm5qM-1" value="" style="shape=table;startSize=0;container=1;collapsible=0;childLayout=tableLayout;fillColor=#dae8fc;strokeColor=#6c8ebf;gradientColor=none;swimlaneFillColor=none;shadow=0;rounded=1;" parent="1" vertex="1">
          <mxGeometry x="95" y="710" width="200" height="80" as="geometry" />
        </mxCell>
        <mxCell id="BfeUEpa1YJ_xbQGrm5qM-2" value="" style="shape=tableRow;horizontal=0;startSize=0;swimlaneHead=0;swimlaneBody=0;strokeColor=inherit;top=0;left=0;bottom=0;right=0;collapsible=0;dropTarget=0;fillColor=none;points=[[0,0.5],[1,0.5]];portConstraint=eastwest;" parent="BfeUEpa1YJ_xbQGrm5qM-1" vertex="1">
          <mxGeometry width="200" height="40" as="geometry" />
        </mxCell>
        <mxCell id="BfeUEpa1YJ_xbQGrm5qM-3" value="&lt;b&gt;&lt;font style=&quot;font-size: 14px;&quot;&gt;Destination&lt;/font&gt;&lt;/b&gt;" style="shape=partialRectangle;html=1;whiteSpace=wrap;connectable=0;strokeColor=inherit;overflow=hidden;fillColor=none;top=0;left=0;bottom=0;right=0;pointerEvents=1;" parent="BfeUEpa1YJ_xbQGrm5qM-2" vertex="1">
          <mxGeometry width="100" height="40" as="geometry">
            <mxRectangle width="100" height="40" as="alternateBounds" />
          </mxGeometry>
        </mxCell>
        <mxCell id="BfeUEpa1YJ_xbQGrm5qM-4" value="&lt;font style=&quot;font-size: 14px;&quot;&gt;&lt;b&gt;Target&lt;/b&gt;&lt;/font&gt;" style="shape=partialRectangle;html=1;whiteSpace=wrap;connectable=0;strokeColor=inherit;overflow=hidden;fillColor=none;top=0;left=0;bottom=0;right=0;pointerEvents=1;" parent="BfeUEpa1YJ_xbQGrm5qM-2" vertex="1">
          <mxGeometry x="100" width="100" height="40" as="geometry">
            <mxRectangle width="100" height="40" as="alternateBounds" />
          </mxGeometry>
        </mxCell>
        <mxCell id="BfeUEpa1YJ_xbQGrm5qM-5" style="shape=tableRow;horizontal=0;startSize=0;swimlaneHead=0;swimlaneBody=0;strokeColor=inherit;top=0;left=0;bottom=0;right=0;collapsible=0;dropTarget=0;fillColor=none;points=[[0,0.5],[1,0.5]];portConstraint=eastwest;" parent="BfeUEpa1YJ_xbQGrm5qM-1" vertex="1">
          <mxGeometry y="40" width="200" height="40" as="geometry" />
        </mxCell>
        <mxCell id="BfeUEpa1YJ_xbQGrm5qM-6" value="172.31.0.0/16" style="shape=partialRectangle;html=1;whiteSpace=wrap;connectable=0;strokeColor=inherit;overflow=hidden;fillColor=none;top=0;left=0;bottom=0;right=0;pointerEvents=1;" parent="BfeUEpa1YJ_xbQGrm5qM-5" vertex="1">
          <mxGeometry width="100" height="40" as="geometry">
            <mxRectangle width="100" height="40" as="alternateBounds" />
          </mxGeometry>
        </mxCell>
        <mxCell id="BfeUEpa1YJ_xbQGrm5qM-7" value="Local" style="shape=partialRectangle;html=1;whiteSpace=wrap;connectable=0;strokeColor=inherit;overflow=hidden;fillColor=none;top=0;left=0;bottom=0;right=0;pointerEvents=1;" parent="BfeUEpa1YJ_xbQGrm5qM-5" vertex="1">
          <mxGeometry x="100" width="100" height="40" as="geometry">
            <mxRectangle width="100" height="40" as="alternateBounds" />
          </mxGeometry>
        </mxCell>
        <mxCell id="BfeUEpa1YJ_xbQGrm5qM-11" value="Main Route Table" style="text;whiteSpace=wrap;align=center;fontSize=16;" parent="1" vertex="1">
          <mxGeometry x="-52.5" y="740" width="147.5" height="40" as="geometry" />
        </mxCell>
      </root>
    </mxGraphModel>
  </diagram>
  <diagram name="Page-2" id="62-L63F7P7pp1o3XMqVL">
    <mxGraphModel dx="1804" dy="602" grid="1" gridSize="10" guides="1" tooltips="1" connect="1" arrows="1" fold="1" page="1" pageScale="1" pageWidth="850" pageHeight="1100" math="0" shadow="0">
      <root>
        <mxCell id="0" />
        <mxCell id="1" parent="0" />
        <mxCell id="bnB-7at8TTm_vPVdgKqp-3" value="VPC" style="points=[[0,0],[0.25,0],[0.5,0],[0.75,0],[1,0],[1,0.25],[1,0.5],[1,0.75],[1,1],[0.75,1],[0.5,1],[0.25,1],[0,1],[0,0.75],[0,0.5],[0,0.25]];outlineConnect=0;gradientColor=none;html=1;whiteSpace=wrap;fontSize=12;fontStyle=0;container=0;pointerEvents=0;collapsible=0;recursiveResize=0;shape=mxgraph.aws4.group;grIcon=mxgraph.aws4.group_vpc;strokeColor=#248814;fillColor=none;verticalAlign=top;align=left;spacingLeft=30;fontColor=#AAB7B8;dashed=0;" parent="1" vertex="1">
          <mxGeometry x="-100" y="230" width="590" height="440" as="geometry" />
        </mxCell>
        <mxCell id="bnB-7at8TTm_vPVdgKqp-4" value="" style="sketch=0;points=[[0,0,0],[0.25,0,0],[0.5,0,0],[0.75,0,0],[1,0,0],[0,1,0],[0.25,1,0],[0.5,1,0],[0.75,1,0],[1,1,0],[0,0.25,0],[0,0.5,0],[0,0.75,0],[1,0.25,0],[1,0.5,0],[1,0.75,0]];outlineConnect=0;fontColor=#232F3E;fillColor=#8C4FFF;strokeColor=#ffffff;dashed=0;verticalLabelPosition=bottom;verticalAlign=top;align=center;html=1;fontSize=12;fontStyle=0;aspect=fixed;shape=mxgraph.aws4.resourceIcon;resIcon=mxgraph.aws4.vpc;container=0;" parent="1" vertex="1">
          <mxGeometry x="360" y="240" width="68" height="68" as="geometry" />
        </mxCell>
        <mxCell id="bnB-7at8TTm_vPVdgKqp-22" value="Region" style="points=[[0,0],[0.25,0],[0.5,0],[0.75,0],[1,0],[1,0.25],[1,0.5],[1,0.75],[1,1],[0.75,1],[0.5,1],[0.25,1],[0,1],[0,0.75],[0,0.5],[0,0.25]];outlineConnect=0;gradientColor=none;html=1;whiteSpace=wrap;fontSize=12;fontStyle=0;container=1;pointerEvents=0;collapsible=0;recursiveResize=0;shape=mxgraph.aws4.group;grIcon=mxgraph.aws4.group_region;strokeColor=#147EBA;fillColor=none;verticalAlign=top;align=left;spacingLeft=30;fontColor=#147EBA;dashed=1;" parent="1" vertex="1">
          <mxGeometry x="-110" y="170" width="610" height="510" as="geometry" />
        </mxCell>
        <mxCell id="bnB-7at8TTm_vPVdgKqp-10" value="US West (Oregon)&#xa;us-west-2" style="text;whiteSpace=wrap;" parent="bnB-7at8TTm_vPVdgKqp-22" vertex="1">
          <mxGeometry x="30" y="20" width="130" height="50" as="geometry" />
        </mxCell>
        <mxCell id="bnB-7at8TTm_vPVdgKqp-16" value="Availability zone" style="sketch=0;outlineConnect=0;gradientColor=none;html=1;whiteSpace=wrap;fontSize=12;fontStyle=0;shape=mxgraph.aws4.group;grIcon=mxgraph.aws4.group_availability_zone;strokeColor=#545B64;fillColor=none;verticalAlign=top;align=left;spacingLeft=30;fontColor=#545B64;dashed=1;" parent="bnB-7at8TTm_vPVdgKqp-22" vertex="1">
          <mxGeometry x="310" y="150" width="280" height="340" as="geometry" />
        </mxCell>
        <mxCell id="bnB-7at8TTm_vPVdgKqp-26" value="Availability zone" style="sketch=0;outlineConnect=0;gradientColor=none;html=1;whiteSpace=wrap;fontSize=12;fontStyle=0;shape=mxgraph.aws4.group;grIcon=mxgraph.aws4.group_availability_zone;strokeColor=#545B64;fillColor=none;verticalAlign=top;align=left;spacingLeft=30;fontColor=#545B64;dashed=1;" parent="bnB-7at8TTm_vPVdgKqp-22" vertex="1">
          <mxGeometry x="20" y="150" width="280" height="340" as="geometry" />
        </mxCell>
        <mxCell id="bnB-7at8TTm_vPVdgKqp-27" value="Public subnet" style="points=[[0,0],[0.25,0],[0.5,0],[0.75,0],[1,0],[1,0.25],[1,0.5],[1,0.75],[1,1],[0.75,1],[0.5,1],[0.25,1],[0,1],[0,0.75],[0,0.5],[0,0.25]];outlineConnect=0;gradientColor=none;html=1;whiteSpace=wrap;fontSize=12;fontStyle=0;container=1;pointerEvents=0;collapsible=0;recursiveResize=0;shape=mxgraph.aws4.group;grIcon=mxgraph.aws4.group_security_group;grStroke=0;strokeColor=#248814;fillColor=#E9F3E6;verticalAlign=top;align=left;spacingLeft=30;fontColor=#248814;dashed=0;" parent="bnB-7at8TTm_vPVdgKqp-22" vertex="1">
          <mxGeometry x="320" y="190" width="260" height="290" as="geometry" />
        </mxCell>
        <mxCell id="bnB-7at8TTm_vPVdgKqp-33" value="" style="sketch=0;outlineConnect=0;fontColor=#232F3E;gradientColor=none;fillColor=#ED7100;strokeColor=none;dashed=0;verticalLabelPosition=bottom;verticalAlign=top;align=center;html=1;fontSize=12;fontStyle=0;aspect=fixed;pointerEvents=1;shape=mxgraph.aws4.instance2;" parent="bnB-7at8TTm_vPVdgKqp-27" vertex="1">
          <mxGeometry x="90" y="110" width="70" height="70" as="geometry" />
        </mxCell>
        <mxCell id="bnB-7at8TTm_vPVdgKqp-12" value="Public subnet" style="points=[[0,0],[0.25,0],[0.5,0],[0.75,0],[1,0],[1,0.25],[1,0.5],[1,0.75],[1,1],[0.75,1],[0.5,1],[0.25,1],[0,1],[0,0.75],[0,0.5],[0,0.25]];outlineConnect=0;gradientColor=none;html=1;whiteSpace=wrap;fontSize=12;fontStyle=0;container=1;pointerEvents=0;collapsible=0;recursiveResize=0;shape=mxgraph.aws4.group;grIcon=mxgraph.aws4.group_security_group;grStroke=0;strokeColor=#248814;fillColor=#E9F3E6;verticalAlign=top;align=left;spacingLeft=30;fontColor=#248814;dashed=0;" parent="bnB-7at8TTm_vPVdgKqp-22" vertex="1">
          <mxGeometry x="30" y="190" width="260" height="290" as="geometry" />
        </mxCell>
        <mxCell id="bnB-7at8TTm_vPVdgKqp-28" value="172.31.0.0/24" style="text;whiteSpace=wrap;align=center;fontSize=18;" parent="bnB-7at8TTm_vPVdgKqp-12" vertex="1">
          <mxGeometry y="30" width="147.5" height="40" as="geometry" />
        </mxCell>
        <mxCell id="bnB-7at8TTm_vPVdgKqp-32" value="" style="sketch=0;outlineConnect=0;fontColor=#232F3E;gradientColor=none;fillColor=#ED7100;strokeColor=none;dashed=0;verticalLabelPosition=bottom;verticalAlign=top;align=center;html=1;fontSize=12;fontStyle=0;aspect=fixed;pointerEvents=1;shape=mxgraph.aws4.instance2;" parent="bnB-7at8TTm_vPVdgKqp-12" vertex="1">
          <mxGeometry x="95" y="110" width="70" height="70" as="geometry" />
        </mxCell>
        <mxCell id="bnB-7at8TTm_vPVdgKqp-34" value="172.31.0.15" style="text;whiteSpace=wrap;align=center;fontSize=15;" parent="bnB-7at8TTm_vPVdgKqp-12" vertex="1">
          <mxGeometry x="56.25" y="180" width="147.5" height="40" as="geometry" />
        </mxCell>
        <mxCell id="bnB-7at8TTm_vPVdgKqp-11" value="CIDR 172.31.0.0/16" style="text;whiteSpace=wrap;align=center;fontSize=26;" parent="bnB-7at8TTm_vPVdgKqp-22" vertex="1">
          <mxGeometry x="187.5" y="80" width="235" height="50" as="geometry" />
        </mxCell>
        <mxCell id="bnB-7at8TTm_vPVdgKqp-29" value="172.31.1.0/24" style="text;whiteSpace=wrap;align=center;fontSize=18;" parent="bnB-7at8TTm_vPVdgKqp-22" vertex="1">
          <mxGeometry x="320" y="220" width="147.5" height="40" as="geometry" />
        </mxCell>
        <mxCell id="bnB-7at8TTm_vPVdgKqp-30" value="" style="sketch=0;outlineConnect=0;fontColor=#232F3E;gradientColor=none;fillColor=#8C4FFF;strokeColor=none;dashed=0;verticalLabelPosition=bottom;verticalAlign=top;align=center;html=1;fontSize=12;fontStyle=0;aspect=fixed;pointerEvents=1;shape=mxgraph.aws4.route_table;" parent="bnB-7at8TTm_vPVdgKqp-22" vertex="1">
          <mxGeometry x="20" y="100" width="51.31" height="50" as="geometry" />
        </mxCell>
        <mxCell id="bnB-7at8TTm_vPVdgKqp-31" value="Main Route Table" style="text;whiteSpace=wrap;align=center;fontSize=16;" parent="bnB-7at8TTm_vPVdgKqp-22" vertex="1">
          <mxGeometry x="71.31" y="110" width="147.5" height="40" as="geometry" />
        </mxCell>
        <mxCell id="bnB-7at8TTm_vPVdgKqp-35" value="172.31.0.11" style="text;whiteSpace=wrap;align=center;fontSize=15;" parent="bnB-7at8TTm_vPVdgKqp-22" vertex="1">
          <mxGeometry x="370" y="370" width="147.5" height="40" as="geometry" />
        </mxCell>
        <mxCell id="bnB-7at8TTm_vPVdgKqp-37" value="" style="sketch=0;outlineConnect=0;fontColor=#232F3E;gradientColor=none;fillColor=#8C4FFF;strokeColor=none;dashed=0;verticalLabelPosition=bottom;verticalAlign=top;align=center;html=1;fontSize=12;fontStyle=0;aspect=fixed;pointerEvents=1;shape=mxgraph.aws4.customer_gateway;" parent="bnB-7at8TTm_vPVdgKqp-22" vertex="1">
          <mxGeometry x="276" y="291" width="58" height="58" as="geometry" />
        </mxCell>
        <mxCell id="bnB-7at8TTm_vPVdgKqp-38" value="Local Router" style="text;whiteSpace=wrap;align=center;fontSize=16;" parent="bnB-7at8TTm_vPVdgKqp-22" vertex="1">
          <mxGeometry x="231.25" y="349" width="147.5" height="40" as="geometry" />
        </mxCell>
        <mxCell id="bnB-7at8TTm_vPVdgKqp-48" value="" style="sketch=0;outlineConnect=0;fontColor=#232F3E;gradientColor=none;fillColor=#8C4FFF;strokeColor=none;dashed=0;verticalLabelPosition=bottom;verticalAlign=top;align=center;html=1;fontSize=12;fontStyle=0;aspect=fixed;pointerEvents=1;shape=mxgraph.aws4.internet_gateway;" parent="bnB-7at8TTm_vPVdgKqp-22" vertex="1">
          <mxGeometry x="276" y="30" width="58" height="58" as="geometry" />
        </mxCell>
        <mxCell id="bnB-7at8TTm_vPVdgKqp-53" value="" style="endArrow=classic;html=1;rounded=0;" parent="bnB-7at8TTm_vPVdgKqp-22" target="bnB-7at8TTm_vPVdgKqp-37" edge="1">
          <mxGeometry width="50" height="50" relative="1" as="geometry">
            <mxPoint x="200" y="340" as="sourcePoint" />
            <mxPoint x="300" y="100" as="targetPoint" />
          </mxGeometry>
        </mxCell>
        <mxCell id="bnB-7at8TTm_vPVdgKqp-55" value="" style="endArrow=classic;html=1;rounded=0;" parent="bnB-7at8TTm_vPVdgKqp-22" source="bnB-7at8TTm_vPVdgKqp-33" target="bnB-7at8TTm_vPVdgKqp-37" edge="1">
          <mxGeometry width="50" height="50" relative="1" as="geometry">
            <mxPoint x="690" y="254" as="sourcePoint" />
            <mxPoint x="766" y="240" as="targetPoint" />
          </mxGeometry>
        </mxCell>
        <mxCell id="bnB-7at8TTm_vPVdgKqp-56" value="" style="endArrow=classic;html=1;rounded=0;" parent="bnB-7at8TTm_vPVdgKqp-22" source="bnB-7at8TTm_vPVdgKqp-37" target="bnB-7at8TTm_vPVdgKqp-48" edge="1">
          <mxGeometry width="50" height="50" relative="1" as="geometry">
            <mxPoint x="253.5" y="248" as="sourcePoint" />
            <mxPoint x="177.5" y="240" as="targetPoint" />
          </mxGeometry>
        </mxCell>
        <mxCell id="bnB-7at8TTm_vPVdgKqp-39" value="" style="shape=table;startSize=0;container=1;collapsible=0;childLayout=tableLayout;fillColor=#dae8fc;strokeColor=#6c8ebf;gradientColor=none;swimlaneFillColor=none;shadow=0;rounded=1;" parent="1" vertex="1">
          <mxGeometry x="95" y="710" width="200" height="120" as="geometry" />
        </mxCell>
        <mxCell id="bnB-7at8TTm_vPVdgKqp-40" value="" style="shape=tableRow;horizontal=0;startSize=0;swimlaneHead=0;swimlaneBody=0;strokeColor=inherit;top=0;left=0;bottom=0;right=0;collapsible=0;dropTarget=0;fillColor=none;points=[[0,0.5],[1,0.5]];portConstraint=eastwest;" parent="bnB-7at8TTm_vPVdgKqp-39" vertex="1">
          <mxGeometry width="200" height="40" as="geometry" />
        </mxCell>
        <mxCell id="bnB-7at8TTm_vPVdgKqp-41" value="&lt;b&gt;&lt;font style=&quot;font-size: 14px;&quot;&gt;Destination&lt;/font&gt;&lt;/b&gt;" style="shape=partialRectangle;html=1;whiteSpace=wrap;connectable=0;strokeColor=inherit;overflow=hidden;fillColor=none;top=0;left=0;bottom=0;right=0;pointerEvents=1;" parent="bnB-7at8TTm_vPVdgKqp-40" vertex="1">
          <mxGeometry width="100" height="40" as="geometry">
            <mxRectangle width="100" height="40" as="alternateBounds" />
          </mxGeometry>
        </mxCell>
        <mxCell id="bnB-7at8TTm_vPVdgKqp-42" value="&lt;font style=&quot;font-size: 14px;&quot;&gt;&lt;b&gt;Target&lt;/b&gt;&lt;/font&gt;" style="shape=partialRectangle;html=1;whiteSpace=wrap;connectable=0;strokeColor=inherit;overflow=hidden;fillColor=none;top=0;left=0;bottom=0;right=0;pointerEvents=1;" parent="bnB-7at8TTm_vPVdgKqp-40" vertex="1">
          <mxGeometry x="100" width="100" height="40" as="geometry">
            <mxRectangle width="100" height="40" as="alternateBounds" />
          </mxGeometry>
        </mxCell>
        <mxCell id="bnB-7at8TTm_vPVdgKqp-50" style="shape=tableRow;horizontal=0;startSize=0;swimlaneHead=0;swimlaneBody=0;strokeColor=inherit;top=0;left=0;bottom=0;right=0;collapsible=0;dropTarget=0;fillColor=none;points=[[0,0.5],[1,0.5]];portConstraint=eastwest;" parent="bnB-7at8TTm_vPVdgKqp-39" vertex="1">
          <mxGeometry y="40" width="200" height="40" as="geometry" />
        </mxCell>
        <mxCell id="bnB-7at8TTm_vPVdgKqp-51" value="172.31.0.0/16" style="shape=partialRectangle;html=1;whiteSpace=wrap;connectable=0;strokeColor=inherit;overflow=hidden;fillColor=none;top=0;left=0;bottom=0;right=0;pointerEvents=1;" parent="bnB-7at8TTm_vPVdgKqp-50" vertex="1">
          <mxGeometry width="100" height="40" as="geometry">
            <mxRectangle width="100" height="40" as="alternateBounds" />
          </mxGeometry>
        </mxCell>
        <mxCell id="bnB-7at8TTm_vPVdgKqp-52" value="Local" style="shape=partialRectangle;html=1;whiteSpace=wrap;connectable=0;strokeColor=inherit;overflow=hidden;fillColor=none;top=0;left=0;bottom=0;right=0;pointerEvents=1;" parent="bnB-7at8TTm_vPVdgKqp-50" vertex="1">
          <mxGeometry x="100" width="100" height="40" as="geometry">
            <mxRectangle width="100" height="40" as="alternateBounds" />
          </mxGeometry>
        </mxCell>
        <mxCell id="bnB-7at8TTm_vPVdgKqp-43" value="" style="shape=tableRow;horizontal=0;startSize=0;swimlaneHead=0;swimlaneBody=0;strokeColor=inherit;top=0;left=0;bottom=0;right=0;collapsible=0;dropTarget=0;fillColor=none;points=[[0,0.5],[1,0.5]];portConstraint=eastwest;" parent="bnB-7at8TTm_vPVdgKqp-39" vertex="1">
          <mxGeometry y="80" width="200" height="40" as="geometry" />
        </mxCell>
        <mxCell id="bnB-7at8TTm_vPVdgKqp-44" value="0.0.0.0/0" style="shape=partialRectangle;html=1;whiteSpace=wrap;connectable=0;strokeColor=inherit;overflow=hidden;fillColor=none;top=0;left=0;bottom=0;right=0;pointerEvents=1;" parent="bnB-7at8TTm_vPVdgKqp-43" vertex="1">
          <mxGeometry width="100" height="40" as="geometry">
            <mxRectangle width="100" height="40" as="alternateBounds" />
          </mxGeometry>
        </mxCell>
        <mxCell id="bnB-7at8TTm_vPVdgKqp-45" value="Internet&lt;br&gt;Gateway" style="shape=partialRectangle;html=1;whiteSpace=wrap;connectable=0;strokeColor=inherit;overflow=hidden;fillColor=none;top=0;left=0;bottom=0;right=0;pointerEvents=1;" parent="bnB-7at8TTm_vPVdgKqp-43" vertex="1">
          <mxGeometry x="100" width="100" height="40" as="geometry">
            <mxRectangle width="100" height="40" as="alternateBounds" />
          </mxGeometry>
        </mxCell>
        <mxCell id="bnB-7at8TTm_vPVdgKqp-47" value="Main Route Table" style="text;whiteSpace=wrap;align=center;fontSize=16;" parent="1" vertex="1">
          <mxGeometry x="-52.5" y="760" width="147.5" height="40" as="geometry" />
        </mxCell>
        <mxCell id="bnB-7at8TTm_vPVdgKqp-49" value="" style="shape=image;html=1;verticalAlign=top;verticalLabelPosition=bottom;labelBackgroundColor=#ffffff;imageAspect=0;aspect=fixed;image=https://cdn2.iconfinder.com/data/icons/crystalproject/128x128/filesystems/www.png" parent="1" vertex="1">
          <mxGeometry x="150" y="50" width="95" height="95" as="geometry" />
        </mxCell>
        <mxCell id="bnB-7at8TTm_vPVdgKqp-57" value="" style="endArrow=classic;html=1;rounded=0;entryX=0.5;entryY=1;entryDx=0;entryDy=0;" parent="1" source="bnB-7at8TTm_vPVdgKqp-48" target="bnB-7at8TTm_vPVdgKqp-49" edge="1">
          <mxGeometry width="50" height="50" relative="1" as="geometry">
            <mxPoint x="360" y="213" as="sourcePoint" />
            <mxPoint x="360" y="10" as="targetPoint" />
          </mxGeometry>
        </mxCell>
      </root>
    </mxGraphModel>
  </diagram>
  <diagram id="sF8_JTRhDm6hVmaj7SdQ" name="Page-3">
    <mxGraphModel dx="1804" dy="602" grid="1" gridSize="10" guides="1" tooltips="1" connect="1" arrows="1" fold="1" page="1" pageScale="1" pageWidth="850" pageHeight="1100" math="0" shadow="0">
      <root>
        <mxCell id="0" />
        <mxCell id="1" parent="0" />
        <mxCell id="Zn1ZSz35Zjy5Cl2U0zXP-1" value="VPC" style="points=[[0,0],[0.25,0],[0.5,0],[0.75,0],[1,0],[1,0.25],[1,0.5],[1,0.75],[1,1],[0.75,1],[0.5,1],[0.25,1],[0,1],[0,0.75],[0,0.5],[0,0.25]];outlineConnect=0;gradientColor=none;html=1;whiteSpace=wrap;fontSize=12;fontStyle=0;container=0;pointerEvents=0;collapsible=0;recursiveResize=0;shape=mxgraph.aws4.group;grIcon=mxgraph.aws4.group_vpc;strokeColor=#248814;fillColor=none;verticalAlign=top;align=left;spacingLeft=30;fontColor=#AAB7B8;dashed=0;" parent="1" vertex="1">
          <mxGeometry x="-100" y="230" width="590" height="440" as="geometry" />
        </mxCell>
        <mxCell id="Zn1ZSz35Zjy5Cl2U0zXP-2" value="" style="sketch=0;points=[[0,0,0],[0.25,0,0],[0.5,0,0],[0.75,0,0],[1,0,0],[0,1,0],[0.25,1,0],[0.5,1,0],[0.75,1,0],[1,1,0],[0,0.25,0],[0,0.5,0],[0,0.75,0],[1,0.25,0],[1,0.5,0],[1,0.75,0]];outlineConnect=0;fontColor=#232F3E;fillColor=#8C4FFF;strokeColor=#ffffff;dashed=0;verticalLabelPosition=bottom;verticalAlign=top;align=center;html=1;fontSize=12;fontStyle=0;aspect=fixed;shape=mxgraph.aws4.resourceIcon;resIcon=mxgraph.aws4.vpc;container=0;" parent="1" vertex="1">
          <mxGeometry x="360" y="240" width="68" height="68" as="geometry" />
        </mxCell>
        <mxCell id="Zn1ZSz35Zjy5Cl2U0zXP-3" value="Region" style="points=[[0,0],[0.25,0],[0.5,0],[0.75,0],[1,0],[1,0.25],[1,0.5],[1,0.75],[1,1],[0.75,1],[0.5,1],[0.25,1],[0,1],[0,0.75],[0,0.5],[0,0.25]];outlineConnect=0;gradientColor=none;html=1;whiteSpace=wrap;fontSize=12;fontStyle=0;container=1;pointerEvents=0;collapsible=0;recursiveResize=0;shape=mxgraph.aws4.group;grIcon=mxgraph.aws4.group_region;strokeColor=#147EBA;fillColor=none;verticalAlign=top;align=left;spacingLeft=30;fontColor=#147EBA;dashed=1;" parent="1" vertex="1">
          <mxGeometry x="-110" y="170" width="610" height="510" as="geometry" />
        </mxCell>
        <mxCell id="Zn1ZSz35Zjy5Cl2U0zXP-5" value="Availability zone" style="sketch=0;outlineConnect=0;gradientColor=none;html=1;whiteSpace=wrap;fontSize=12;fontStyle=0;shape=mxgraph.aws4.group;grIcon=mxgraph.aws4.group_availability_zone;strokeColor=#545B64;fillColor=none;verticalAlign=top;align=left;spacingLeft=30;fontColor=#545B64;dashed=1;" parent="Zn1ZSz35Zjy5Cl2U0zXP-3" vertex="1">
          <mxGeometry x="310" y="150" width="280" height="340" as="geometry" />
        </mxCell>
        <mxCell id="QJaRwNRV_t9z53oFuNBA-1" value="Private subnet" style="points=[[0,0],[0.25,0],[0.5,0],[0.75,0],[1,0],[1,0.25],[1,0.5],[1,0.75],[1,1],[0.75,1],[0.5,1],[0.25,1],[0,1],[0,0.75],[0,0.5],[0,0.25]];outlineConnect=0;gradientColor=none;html=1;whiteSpace=wrap;fontSize=12;fontStyle=0;container=1;pointerEvents=0;collapsible=0;recursiveResize=0;shape=mxgraph.aws4.group;grIcon=mxgraph.aws4.group_security_group;grStroke=0;strokeColor=#147EBA;fillColor=#E6F2F8;verticalAlign=top;align=left;spacingLeft=30;fontColor=#147EBA;dashed=0;" parent="Zn1ZSz35Zjy5Cl2U0zXP-3" vertex="1">
          <mxGeometry x="311" y="190" width="279" height="290" as="geometry" />
        </mxCell>
        <mxCell id="Zn1ZSz35Zjy5Cl2U0zXP-4" value="US West (Oregon)&#xa;us-west-2" style="text;whiteSpace=wrap;" parent="Zn1ZSz35Zjy5Cl2U0zXP-3" vertex="1">
          <mxGeometry x="30" y="20" width="130" height="50" as="geometry" />
        </mxCell>
        <mxCell id="Zn1ZSz35Zjy5Cl2U0zXP-6" value="Availability zone" style="sketch=0;outlineConnect=0;gradientColor=none;html=1;whiteSpace=wrap;fontSize=12;fontStyle=0;shape=mxgraph.aws4.group;grIcon=mxgraph.aws4.group_availability_zone;strokeColor=#545B64;fillColor=none;verticalAlign=top;align=left;spacingLeft=30;fontColor=#545B64;dashed=1;" parent="Zn1ZSz35Zjy5Cl2U0zXP-3" vertex="1">
          <mxGeometry x="20" y="150" width="280" height="340" as="geometry" />
        </mxCell>
        <mxCell id="Zn1ZSz35Zjy5Cl2U0zXP-9" value="Public subnet" style="points=[[0,0],[0.25,0],[0.5,0],[0.75,0],[1,0],[1,0.25],[1,0.5],[1,0.75],[1,1],[0.75,1],[0.5,1],[0.25,1],[0,1],[0,0.75],[0,0.5],[0,0.25]];outlineConnect=0;gradientColor=none;html=1;whiteSpace=wrap;fontSize=12;fontStyle=0;container=1;pointerEvents=0;collapsible=0;recursiveResize=0;shape=mxgraph.aws4.group;grIcon=mxgraph.aws4.group_security_group;grStroke=0;strokeColor=#248814;fillColor=#E9F3E6;verticalAlign=top;align=left;spacingLeft=30;fontColor=#248814;dashed=0;" parent="Zn1ZSz35Zjy5Cl2U0zXP-3" vertex="1">
          <mxGeometry x="30" y="190" width="260" height="290" as="geometry" />
        </mxCell>
        <mxCell id="Zn1ZSz35Zjy5Cl2U0zXP-10" value="172.31.0.0/24" style="text;whiteSpace=wrap;align=center;fontSize=18;" parent="Zn1ZSz35Zjy5Cl2U0zXP-9" vertex="1">
          <mxGeometry y="30" width="147.5" height="40" as="geometry" />
        </mxCell>
        <mxCell id="Zn1ZSz35Zjy5Cl2U0zXP-11" value="" style="sketch=0;outlineConnect=0;fontColor=#232F3E;gradientColor=none;fillColor=#ED7100;strokeColor=none;dashed=0;verticalLabelPosition=bottom;verticalAlign=top;align=center;html=1;fontSize=12;fontStyle=0;aspect=fixed;pointerEvents=1;shape=mxgraph.aws4.instance2;" parent="Zn1ZSz35Zjy5Cl2U0zXP-9" vertex="1">
          <mxGeometry x="95" y="110" width="70" height="70" as="geometry" />
        </mxCell>
        <mxCell id="Zn1ZSz35Zjy5Cl2U0zXP-12" value="172.31.0.15" style="text;whiteSpace=wrap;align=center;fontSize=15;" parent="Zn1ZSz35Zjy5Cl2U0zXP-9" vertex="1">
          <mxGeometry x="56.25" y="180" width="147.5" height="40" as="geometry" />
        </mxCell>
        <mxCell id="Zn1ZSz35Zjy5Cl2U0zXP-13" value="CIDR 172.31.0.0/16" style="text;whiteSpace=wrap;align=center;fontSize=26;" parent="Zn1ZSz35Zjy5Cl2U0zXP-3" vertex="1">
          <mxGeometry x="187.5" y="80" width="235" height="50" as="geometry" />
        </mxCell>
        <mxCell id="Zn1ZSz35Zjy5Cl2U0zXP-14" value="172.31.1.0/24" style="text;whiteSpace=wrap;align=center;fontSize=18;" parent="Zn1ZSz35Zjy5Cl2U0zXP-3" vertex="1">
          <mxGeometry x="320" y="220" width="147.5" height="40" as="geometry" />
        </mxCell>
        <mxCell id="Zn1ZSz35Zjy5Cl2U0zXP-15" value="" style="sketch=0;outlineConnect=0;fontColor=#232F3E;gradientColor=none;fillColor=#8C4FFF;strokeColor=none;dashed=0;verticalLabelPosition=bottom;verticalAlign=top;align=center;html=1;fontSize=12;fontStyle=0;aspect=fixed;pointerEvents=1;shape=mxgraph.aws4.route_table;" parent="Zn1ZSz35Zjy5Cl2U0zXP-3" vertex="1">
          <mxGeometry x="238.69" y="190" width="51.31" height="50" as="geometry" />
        </mxCell>
        <mxCell id="Zn1ZSz35Zjy5Cl2U0zXP-17" value="172.31.1.11" style="text;whiteSpace=wrap;align=center;fontSize=15;" parent="Zn1ZSz35Zjy5Cl2U0zXP-3" vertex="1">
          <mxGeometry x="370" y="370" width="147.5" height="40" as="geometry" />
        </mxCell>
        <mxCell id="Zn1ZSz35Zjy5Cl2U0zXP-18" value="" style="sketch=0;outlineConnect=0;fontColor=#232F3E;gradientColor=none;fillColor=#8C4FFF;strokeColor=none;dashed=0;verticalLabelPosition=bottom;verticalAlign=top;align=center;html=1;fontSize=12;fontStyle=0;aspect=fixed;pointerEvents=1;shape=mxgraph.aws4.customer_gateway;" parent="Zn1ZSz35Zjy5Cl2U0zXP-3" vertex="1">
          <mxGeometry x="276" y="291" width="58" height="58" as="geometry" />
        </mxCell>
        <mxCell id="Zn1ZSz35Zjy5Cl2U0zXP-19" value="Local Router" style="text;whiteSpace=wrap;align=center;fontSize=16;" parent="Zn1ZSz35Zjy5Cl2U0zXP-3" vertex="1">
          <mxGeometry x="231.25" y="349" width="147.5" height="40" as="geometry" />
        </mxCell>
        <mxCell id="Zn1ZSz35Zjy5Cl2U0zXP-20" value="" style="sketch=0;outlineConnect=0;fontColor=#232F3E;gradientColor=none;fillColor=#8C4FFF;strokeColor=none;dashed=0;verticalLabelPosition=bottom;verticalAlign=top;align=center;html=1;fontSize=12;fontStyle=0;aspect=fixed;pointerEvents=1;shape=mxgraph.aws4.internet_gateway;" parent="Zn1ZSz35Zjy5Cl2U0zXP-3" vertex="1">
          <mxGeometry x="276" y="30" width="58" height="58" as="geometry" />
        </mxCell>
        <mxCell id="Zn1ZSz35Zjy5Cl2U0zXP-21" value="" style="endArrow=classic;html=1;rounded=0;" parent="Zn1ZSz35Zjy5Cl2U0zXP-3" target="Zn1ZSz35Zjy5Cl2U0zXP-18" edge="1">
          <mxGeometry width="50" height="50" relative="1" as="geometry">
            <mxPoint x="200" y="340" as="sourcePoint" />
            <mxPoint x="300" y="100" as="targetPoint" />
          </mxGeometry>
        </mxCell>
        <mxCell id="Zn1ZSz35Zjy5Cl2U0zXP-23" value="" style="endArrow=classic;html=1;rounded=0;" parent="Zn1ZSz35Zjy5Cl2U0zXP-3" source="Zn1ZSz35Zjy5Cl2U0zXP-18" target="Zn1ZSz35Zjy5Cl2U0zXP-20" edge="1">
          <mxGeometry width="50" height="50" relative="1" as="geometry">
            <mxPoint x="253.5" y="248" as="sourcePoint" />
            <mxPoint x="177.5" y="240" as="targetPoint" />
          </mxGeometry>
        </mxCell>
        <mxCell id="Zn1ZSz35Zjy5Cl2U0zXP-37" value="" style="sketch=0;outlineConnect=0;fontColor=#232F3E;gradientColor=none;fillColor=#8C4FFF;strokeColor=none;dashed=0;verticalLabelPosition=bottom;verticalAlign=top;align=center;html=1;fontSize=12;fontStyle=0;aspect=fixed;pointerEvents=1;shape=mxgraph.aws4.route_table;" parent="Zn1ZSz35Zjy5Cl2U0zXP-3" vertex="1">
          <mxGeometry x="528.69" y="190" width="51.31" height="50" as="geometry" />
        </mxCell>
        <mxCell id="Zn1ZSz35Zjy5Cl2U0zXP-16" value="Main Route Table" style="text;whiteSpace=wrap;align=center;fontSize=16;" parent="Zn1ZSz35Zjy5Cl2U0zXP-3" vertex="1">
          <mxGeometry x="170" y="190" width="78.69" height="70" as="geometry" />
        </mxCell>
        <mxCell id="Zn1ZSz35Zjy5Cl2U0zXP-38" value="Custom&#xa;Route&#xa;Table" style="text;whiteSpace=wrap;align=center;fontSize=16;" parent="Zn1ZSz35Zjy5Cl2U0zXP-3" vertex="1">
          <mxGeometry x="450" y="190" width="78.69" height="70" as="geometry" />
        </mxCell>
        <mxCell id="Tq-gdIcd1clrl8pqsNNG-1" value="" style="sketch=0;outlineConnect=0;fontColor=#232F3E;gradientColor=none;fillColor=#ED7100;strokeColor=none;dashed=0;verticalLabelPosition=bottom;verticalAlign=top;align=center;html=1;fontSize=12;fontStyle=0;aspect=fixed;pointerEvents=1;shape=mxgraph.aws4.instance2;" parent="Zn1ZSz35Zjy5Cl2U0zXP-3" vertex="1">
          <mxGeometry x="408.75" y="300" width="70" height="70" as="geometry" />
        </mxCell>
        <mxCell id="Zn1ZSz35Zjy5Cl2U0zXP-24" value="" style="shape=table;startSize=0;container=1;collapsible=0;childLayout=tableLayout;fillColor=#dae8fc;strokeColor=#6c8ebf;gradientColor=none;swimlaneFillColor=none;shadow=0;rounded=1;" parent="1" vertex="1">
          <mxGeometry x="-60" y="730" width="200" height="120" as="geometry" />
        </mxCell>
        <mxCell id="Zn1ZSz35Zjy5Cl2U0zXP-25" value="" style="shape=tableRow;horizontal=0;startSize=0;swimlaneHead=0;swimlaneBody=0;strokeColor=inherit;top=0;left=0;bottom=0;right=0;collapsible=0;dropTarget=0;fillColor=none;points=[[0,0.5],[1,0.5]];portConstraint=eastwest;" parent="Zn1ZSz35Zjy5Cl2U0zXP-24" vertex="1">
          <mxGeometry width="200" height="40" as="geometry" />
        </mxCell>
        <mxCell id="Zn1ZSz35Zjy5Cl2U0zXP-26" value="&lt;b&gt;&lt;font style=&quot;font-size: 14px;&quot;&gt;Destination&lt;/font&gt;&lt;/b&gt;" style="shape=partialRectangle;html=1;whiteSpace=wrap;connectable=0;strokeColor=inherit;overflow=hidden;fillColor=none;top=0;left=0;bottom=0;right=0;pointerEvents=1;" parent="Zn1ZSz35Zjy5Cl2U0zXP-25" vertex="1">
          <mxGeometry width="100" height="40" as="geometry">
            <mxRectangle width="100" height="40" as="alternateBounds" />
          </mxGeometry>
        </mxCell>
        <mxCell id="Zn1ZSz35Zjy5Cl2U0zXP-27" value="&lt;font style=&quot;font-size: 14px;&quot;&gt;&lt;b&gt;Target&lt;/b&gt;&lt;/font&gt;" style="shape=partialRectangle;html=1;whiteSpace=wrap;connectable=0;strokeColor=inherit;overflow=hidden;fillColor=none;top=0;left=0;bottom=0;right=0;pointerEvents=1;" parent="Zn1ZSz35Zjy5Cl2U0zXP-25" vertex="1">
          <mxGeometry x="100" width="100" height="40" as="geometry">
            <mxRectangle width="100" height="40" as="alternateBounds" />
          </mxGeometry>
        </mxCell>
        <mxCell id="Zn1ZSz35Zjy5Cl2U0zXP-28" style="shape=tableRow;horizontal=0;startSize=0;swimlaneHead=0;swimlaneBody=0;strokeColor=inherit;top=0;left=0;bottom=0;right=0;collapsible=0;dropTarget=0;fillColor=none;points=[[0,0.5],[1,0.5]];portConstraint=eastwest;" parent="Zn1ZSz35Zjy5Cl2U0zXP-24" vertex="1">
          <mxGeometry y="40" width="200" height="40" as="geometry" />
        </mxCell>
        <mxCell id="Zn1ZSz35Zjy5Cl2U0zXP-29" value="172.31.0.0/16" style="shape=partialRectangle;html=1;whiteSpace=wrap;connectable=0;strokeColor=inherit;overflow=hidden;fillColor=none;top=0;left=0;bottom=0;right=0;pointerEvents=1;" parent="Zn1ZSz35Zjy5Cl2U0zXP-28" vertex="1">
          <mxGeometry width="100" height="40" as="geometry">
            <mxRectangle width="100" height="40" as="alternateBounds" />
          </mxGeometry>
        </mxCell>
        <mxCell id="Zn1ZSz35Zjy5Cl2U0zXP-30" value="Local" style="shape=partialRectangle;html=1;whiteSpace=wrap;connectable=0;strokeColor=inherit;overflow=hidden;fillColor=none;top=0;left=0;bottom=0;right=0;pointerEvents=1;" parent="Zn1ZSz35Zjy5Cl2U0zXP-28" vertex="1">
          <mxGeometry x="100" width="100" height="40" as="geometry">
            <mxRectangle width="100" height="40" as="alternateBounds" />
          </mxGeometry>
        </mxCell>
        <mxCell id="Zn1ZSz35Zjy5Cl2U0zXP-31" value="" style="shape=tableRow;horizontal=0;startSize=0;swimlaneHead=0;swimlaneBody=0;strokeColor=inherit;top=0;left=0;bottom=0;right=0;collapsible=0;dropTarget=0;fillColor=none;points=[[0,0.5],[1,0.5]];portConstraint=eastwest;" parent="Zn1ZSz35Zjy5Cl2U0zXP-24" vertex="1">
          <mxGeometry y="80" width="200" height="40" as="geometry" />
        </mxCell>
        <mxCell id="Zn1ZSz35Zjy5Cl2U0zXP-32" value="0.0.0.0/0" style="shape=partialRectangle;html=1;whiteSpace=wrap;connectable=0;strokeColor=inherit;overflow=hidden;fillColor=none;top=0;left=0;bottom=0;right=0;pointerEvents=1;" parent="Zn1ZSz35Zjy5Cl2U0zXP-31" vertex="1">
          <mxGeometry width="100" height="40" as="geometry">
            <mxRectangle width="100" height="40" as="alternateBounds" />
          </mxGeometry>
        </mxCell>
        <mxCell id="Zn1ZSz35Zjy5Cl2U0zXP-33" value="Internet&lt;br&gt;Gateway" style="shape=partialRectangle;html=1;whiteSpace=wrap;connectable=0;strokeColor=inherit;overflow=hidden;fillColor=none;top=0;left=0;bottom=0;right=0;pointerEvents=1;" parent="Zn1ZSz35Zjy5Cl2U0zXP-31" vertex="1">
          <mxGeometry x="100" width="100" height="40" as="geometry">
            <mxRectangle width="100" height="40" as="alternateBounds" />
          </mxGeometry>
        </mxCell>
        <mxCell id="Zn1ZSz35Zjy5Cl2U0zXP-34" value="Main Route table" style="text;whiteSpace=wrap;align=center;fontSize=16;" parent="1" vertex="1">
          <mxGeometry x="-33.75" y="690" width="147.5" height="40" as="geometry" />
        </mxCell>
        <mxCell id="Zn1ZSz35Zjy5Cl2U0zXP-35" value="" style="shape=image;html=1;verticalAlign=top;verticalLabelPosition=bottom;labelBackgroundColor=#ffffff;imageAspect=0;aspect=fixed;image=https://cdn2.iconfinder.com/data/icons/crystalproject/128x128/filesystems/www.png" parent="1" vertex="1">
          <mxGeometry x="150" y="50" width="95" height="95" as="geometry" />
        </mxCell>
        <mxCell id="Zn1ZSz35Zjy5Cl2U0zXP-36" value="" style="endArrow=classic;html=1;rounded=0;entryX=0.5;entryY=1;entryDx=0;entryDy=0;" parent="1" source="Zn1ZSz35Zjy5Cl2U0zXP-20" target="Zn1ZSz35Zjy5Cl2U0zXP-35" edge="1">
          <mxGeometry width="50" height="50" relative="1" as="geometry">
            <mxPoint x="360" y="213" as="sourcePoint" />
            <mxPoint x="360" y="10" as="targetPoint" />
          </mxGeometry>
        </mxCell>
        <mxCell id="Zn1ZSz35Zjy5Cl2U0zXP-40" value="" style="shape=table;startSize=0;container=1;collapsible=0;childLayout=tableLayout;fillColor=#dae8fc;strokeColor=#6c8ebf;gradientColor=none;swimlaneFillColor=none;shadow=0;rounded=1;" parent="1" vertex="1">
          <mxGeometry x="230" y="730" width="200" height="80" as="geometry" />
        </mxCell>
        <mxCell id="Zn1ZSz35Zjy5Cl2U0zXP-41" value="" style="shape=tableRow;horizontal=0;startSize=0;swimlaneHead=0;swimlaneBody=0;strokeColor=inherit;top=0;left=0;bottom=0;right=0;collapsible=0;dropTarget=0;fillColor=none;points=[[0,0.5],[1,0.5]];portConstraint=eastwest;" parent="Zn1ZSz35Zjy5Cl2U0zXP-40" vertex="1">
          <mxGeometry width="200" height="40" as="geometry" />
        </mxCell>
        <mxCell id="Zn1ZSz35Zjy5Cl2U0zXP-42" value="&lt;b&gt;&lt;font style=&quot;font-size: 14px;&quot;&gt;Destination&lt;/font&gt;&lt;/b&gt;" style="shape=partialRectangle;html=1;whiteSpace=wrap;connectable=0;strokeColor=inherit;overflow=hidden;fillColor=none;top=0;left=0;bottom=0;right=0;pointerEvents=1;" parent="Zn1ZSz35Zjy5Cl2U0zXP-41" vertex="1">
          <mxGeometry width="100" height="40" as="geometry">
            <mxRectangle width="100" height="40" as="alternateBounds" />
          </mxGeometry>
        </mxCell>
        <mxCell id="Zn1ZSz35Zjy5Cl2U0zXP-43" value="&lt;font style=&quot;font-size: 14px;&quot;&gt;&lt;b&gt;Target&lt;/b&gt;&lt;/font&gt;" style="shape=partialRectangle;html=1;whiteSpace=wrap;connectable=0;strokeColor=inherit;overflow=hidden;fillColor=none;top=0;left=0;bottom=0;right=0;pointerEvents=1;" parent="Zn1ZSz35Zjy5Cl2U0zXP-41" vertex="1">
          <mxGeometry x="100" width="100" height="40" as="geometry">
            <mxRectangle width="100" height="40" as="alternateBounds" />
          </mxGeometry>
        </mxCell>
        <mxCell id="Zn1ZSz35Zjy5Cl2U0zXP-44" style="shape=tableRow;horizontal=0;startSize=0;swimlaneHead=0;swimlaneBody=0;strokeColor=inherit;top=0;left=0;bottom=0;right=0;collapsible=0;dropTarget=0;fillColor=none;points=[[0,0.5],[1,0.5]];portConstraint=eastwest;" parent="Zn1ZSz35Zjy5Cl2U0zXP-40" vertex="1">
          <mxGeometry y="40" width="200" height="40" as="geometry" />
        </mxCell>
        <mxCell id="Zn1ZSz35Zjy5Cl2U0zXP-45" value="172.31.0.0/16" style="shape=partialRectangle;html=1;whiteSpace=wrap;connectable=0;strokeColor=inherit;overflow=hidden;fillColor=none;top=0;left=0;bottom=0;right=0;pointerEvents=1;" parent="Zn1ZSz35Zjy5Cl2U0zXP-44" vertex="1">
          <mxGeometry width="100" height="40" as="geometry">
            <mxRectangle width="100" height="40" as="alternateBounds" />
          </mxGeometry>
        </mxCell>
        <mxCell id="Zn1ZSz35Zjy5Cl2U0zXP-46" value="Local" style="shape=partialRectangle;html=1;whiteSpace=wrap;connectable=0;strokeColor=inherit;overflow=hidden;fillColor=none;top=0;left=0;bottom=0;right=0;pointerEvents=1;" parent="Zn1ZSz35Zjy5Cl2U0zXP-44" vertex="1">
          <mxGeometry x="100" width="100" height="40" as="geometry">
            <mxRectangle width="100" height="40" as="alternateBounds" />
          </mxGeometry>
        </mxCell>
        <mxCell id="Zn1ZSz35Zjy5Cl2U0zXP-50" value="Custom Route table" style="text;whiteSpace=wrap;align=center;fontSize=16;" parent="1" vertex="1">
          <mxGeometry x="256.25" y="690" width="147.5" height="40" as="geometry" />
        </mxCell>
      </root>
    </mxGraphModel>
  </diagram>
  <diagram id="jxrL0j0gzmfckPuluqEc" name="Page-4">
    <mxGraphModel dx="954" dy="602" grid="1" gridSize="10" guides="1" tooltips="1" connect="1" arrows="1" fold="1" page="1" pageScale="1" pageWidth="850" pageHeight="1100" math="0" shadow="0">
      <root>
        <mxCell id="0" />
        <mxCell id="1" parent="0" />
        <mxCell id="2nOk40ODFNWchTjvgyNh-1" value="Availability zone" style="sketch=0;outlineConnect=0;gradientColor=none;html=1;whiteSpace=wrap;fontSize=12;fontStyle=0;shape=mxgraph.aws4.group;grIcon=mxgraph.aws4.group_availability_zone;strokeColor=#545B64;fillColor=none;verticalAlign=top;align=left;spacingLeft=30;fontColor=#545B64;dashed=1;" parent="1" vertex="1">
          <mxGeometry x="240" y="200" width="320" height="280" as="geometry" />
        </mxCell>
        <mxCell id="2nOk40ODFNWchTjvgyNh-2" value="" style="sketch=0;outlineConnect=0;fontColor=#232F3E;gradientColor=none;fillColor=#ED7100;strokeColor=none;dashed=0;verticalLabelPosition=bottom;verticalAlign=top;align=center;html=1;fontSize=12;fontStyle=0;aspect=fixed;pointerEvents=1;shape=mxgraph.aws4.instance2;" parent="1" vertex="1">
          <mxGeometry x="277" y="240" width="80" height="80" as="geometry" />
        </mxCell>
        <mxCell id="2nOk40ODFNWchTjvgyNh-3" value="" style="sketch=0;outlineConnect=0;fontColor=#232F3E;gradientColor=none;fillColor=#8C4FFF;strokeColor=none;dashed=0;verticalLabelPosition=bottom;verticalAlign=top;align=center;html=1;fontSize=12;fontStyle=0;aspect=fixed;pointerEvents=1;shape=mxgraph.aws4.elastic_network_interface;" parent="1" vertex="1">
          <mxGeometry x="360" y="240" width="40" height="40" as="geometry" />
        </mxCell>
        <mxCell id="2nOk40ODFNWchTjvgyNh-4" value="Eth0 - primary ENI&lt;br&gt;&lt;div style=&quot;&quot;&gt;&lt;span style=&quot;background-color: initial;&quot;&gt;192.168.0.31&lt;/span&gt;&lt;/div&gt;" style="text;html=1;align=left;verticalAlign=middle;resizable=0;points=[];autosize=1;strokeColor=none;fillColor=none;" parent="1" vertex="1">
          <mxGeometry x="400" y="240" width="120" height="40" as="geometry" />
        </mxCell>
        <mxCell id="2nOk40ODFNWchTjvgyNh-12" style="edgeStyle=orthogonalEdgeStyle;rounded=0;orthogonalLoop=1;jettySize=auto;html=1;dashed=1;" parent="1" source="2nOk40ODFNWchTjvgyNh-5" target="2nOk40ODFNWchTjvgyNh-9" edge="1">
          <mxGeometry relative="1" as="geometry">
            <Array as="points">
              <mxPoint x="380" y="350" />
              <mxPoint x="530" y="350" />
              <mxPoint x="530" y="420" />
            </Array>
          </mxGeometry>
        </mxCell>
        <mxCell id="2nOk40ODFNWchTjvgyNh-5" value="" style="sketch=0;outlineConnect=0;fontColor=#232F3E;gradientColor=none;fillColor=#8C4FFF;strokeColor=none;dashed=0;verticalLabelPosition=bottom;verticalAlign=top;align=center;html=1;fontSize=12;fontStyle=0;aspect=fixed;pointerEvents=1;shape=mxgraph.aws4.elastic_network_interface;" parent="1" vertex="1">
          <mxGeometry x="360" y="280" width="40" height="40" as="geometry" />
        </mxCell>
        <mxCell id="2nOk40ODFNWchTjvgyNh-6" value="Eth1 - primary ENI&lt;br&gt;&lt;div style=&quot;&quot;&gt;&lt;span style=&quot;background-color: initial;&quot;&gt;192.168.0.42&lt;/span&gt;&lt;/div&gt;" style="text;html=1;align=left;verticalAlign=middle;resizable=0;points=[];autosize=1;strokeColor=none;fillColor=none;" parent="1" vertex="1">
          <mxGeometry x="400" y="280" width="120" height="40" as="geometry" />
        </mxCell>
        <mxCell id="2nOk40ODFNWchTjvgyNh-7" value="" style="sketch=0;outlineConnect=0;fontColor=#232F3E;gradientColor=none;fillColor=#ED7100;strokeColor=none;dashed=0;verticalLabelPosition=bottom;verticalAlign=top;align=center;html=1;fontSize=12;fontStyle=0;aspect=fixed;pointerEvents=1;shape=mxgraph.aws4.instance2;" parent="1" vertex="1">
          <mxGeometry x="277" y="360" width="80" height="80" as="geometry" />
        </mxCell>
        <mxCell id="2nOk40ODFNWchTjvgyNh-8" value="" style="sketch=0;outlineConnect=0;fontColor=#232F3E;gradientColor=none;fillColor=#8C4FFF;strokeColor=none;dashed=0;verticalLabelPosition=bottom;verticalAlign=top;align=center;html=1;fontSize=12;fontStyle=0;aspect=fixed;pointerEvents=1;shape=mxgraph.aws4.elastic_network_interface;" parent="1" vertex="1">
          <mxGeometry x="360" y="360" width="40" height="40" as="geometry" />
        </mxCell>
        <mxCell id="2nOk40ODFNWchTjvgyNh-9" value="" style="sketch=0;outlineConnect=0;fontColor=#232F3E;gradientColor=none;fillColor=#8C4FFF;strokeColor=none;dashed=0;verticalLabelPosition=bottom;verticalAlign=top;align=center;html=1;fontSize=12;fontStyle=0;aspect=fixed;pointerEvents=1;shape=mxgraph.aws4.elastic_network_interface;" parent="1" vertex="1">
          <mxGeometry x="360" y="400" width="40" height="40" as="geometry" />
        </mxCell>
        <mxCell id="2nOk40ODFNWchTjvgyNh-10" value="Eth0 - primary ENI" style="text;html=1;align=left;verticalAlign=middle;resizable=0;points=[];autosize=1;strokeColor=none;fillColor=none;" parent="1" vertex="1">
          <mxGeometry x="400" y="365" width="120" height="30" as="geometry" />
        </mxCell>
        <mxCell id="2nOk40ODFNWchTjvgyNh-13" value="can be moved" style="text;html=1;align=center;verticalAlign=middle;resizable=0;points=[];autosize=1;strokeColor=none;fillColor=none;fontStyle=1" parent="1" vertex="1">
          <mxGeometry x="400" y="325" width="100" height="30" as="geometry" />
        </mxCell>
      </root>
    </mxGraphModel>
  </diagram>
  <diagram id="YOwp4loXjhxMLj4l7xCi" name="Page-5">
    <mxGraphModel dx="1804" dy="602" grid="1" gridSize="10" guides="1" tooltips="1" connect="1" arrows="1" fold="1" page="1" pageScale="1" pageWidth="850" pageHeight="1100" math="0" shadow="0">
      <root>
        <mxCell id="0" />
        <mxCell id="1" parent="0" />
        <mxCell id="CrH-1scPD4Wo0NsQhDlx-59" value="Availability zone" style="sketch=0;outlineConnect=0;gradientColor=none;html=1;whiteSpace=wrap;fontSize=12;fontStyle=0;shape=mxgraph.aws4.group;grIcon=mxgraph.aws4.group_availability_zone;strokeColor=#545B64;fillColor=none;verticalAlign=top;align=left;spacingLeft=30;fontColor=#545B64;dashed=1;" parent="1" vertex="1">
          <mxGeometry x="450" y="320" width="280" height="340" as="geometry" />
        </mxCell>
        <mxCell id="CrH-1scPD4Wo0NsQhDlx-44" value="Private subnet" style="points=[[0,0],[0.25,0],[0.5,0],[0.75,0],[1,0],[1,0.25],[1,0.5],[1,0.75],[1,1],[0.75,1],[0.5,1],[0.25,1],[0,1],[0,0.75],[0,0.5],[0,0.25]];outlineConnect=0;gradientColor=none;html=1;whiteSpace=wrap;fontSize=12;fontStyle=0;container=1;pointerEvents=0;collapsible=0;recursiveResize=0;shape=mxgraph.aws4.group;grIcon=mxgraph.aws4.group_security_group;grStroke=0;strokeColor=#147EBA;fillColor=#E6F2F8;verticalAlign=top;align=left;spacingLeft=30;fontColor=#147EBA;dashed=0;" parent="1" vertex="1">
          <mxGeometry x="-110" y="360" width="259" height="290" as="geometry" />
        </mxCell>
        <mxCell id="CrH-1scPD4Wo0NsQhDlx-1" value="VPC" style="points=[[0,0],[0.25,0],[0.5,0],[0.75,0],[1,0],[1,0.25],[1,0.5],[1,0.75],[1,1],[0.75,1],[0.5,1],[0.25,1],[0,1],[0,0.75],[0,0.5],[0,0.25]];outlineConnect=0;gradientColor=none;html=1;whiteSpace=wrap;fontSize=12;fontStyle=0;container=0;pointerEvents=0;collapsible=0;recursiveResize=0;shape=mxgraph.aws4.group;grIcon=mxgraph.aws4.group_vpc;strokeColor=#248814;fillColor=none;verticalAlign=top;align=left;spacingLeft=30;fontColor=#AAB7B8;dashed=0;" parent="1" vertex="1">
          <mxGeometry x="-130" y="230" width="300" height="440" as="geometry" />
        </mxCell>
        <mxCell id="CrH-1scPD4Wo0NsQhDlx-2" value="" style="sketch=0;points=[[0,0,0],[0.25,0,0],[0.5,0,0],[0.75,0,0],[1,0,0],[0,1,0],[0.25,1,0],[0.5,1,0],[0.75,1,0],[1,1,0],[0,0.25,0],[0,0.5,0],[0,0.75,0],[1,0.25,0],[1,0.5,0],[1,0.75,0]];outlineConnect=0;fontColor=#232F3E;fillColor=#8C4FFF;strokeColor=#ffffff;dashed=0;verticalLabelPosition=bottom;verticalAlign=top;align=center;html=1;fontSize=12;fontStyle=0;aspect=fixed;shape=mxgraph.aws4.resourceIcon;resIcon=mxgraph.aws4.vpc;container=0;" parent="1" vertex="1">
          <mxGeometry x="108" y="240" width="52" height="52" as="geometry" />
        </mxCell>
        <mxCell id="CrH-1scPD4Wo0NsQhDlx-4" value="US West (Oregon)&#xa;us-west-2" style="text;whiteSpace=wrap;" parent="1" vertex="1">
          <mxGeometry x="-110" y="190" width="130" height="50" as="geometry" />
        </mxCell>
        <mxCell id="CrH-1scPD4Wo0NsQhDlx-6" value="Availability zone" style="sketch=0;outlineConnect=0;gradientColor=none;html=1;whiteSpace=wrap;fontSize=12;fontStyle=0;shape=mxgraph.aws4.group;grIcon=mxgraph.aws4.group_availability_zone;strokeColor=#545B64;fillColor=none;verticalAlign=top;align=left;spacingLeft=30;fontColor=#545B64;dashed=1;" parent="1" vertex="1">
          <mxGeometry x="-120" y="320" width="280" height="340" as="geometry" />
        </mxCell>
        <mxCell id="CrH-1scPD4Wo0NsQhDlx-7" value="Public subnet" style="points=[[0,0],[0.25,0],[0.5,0],[0.75,0],[1,0],[1,0.25],[1,0.5],[1,0.75],[1,1],[0.75,1],[0.5,1],[0.25,1],[0,1],[0,0.75],[0,0.5],[0,0.25]];outlineConnect=0;gradientColor=none;html=1;whiteSpace=wrap;fontSize=12;fontStyle=0;container=1;pointerEvents=0;collapsible=0;recursiveResize=0;shape=mxgraph.aws4.group;grIcon=mxgraph.aws4.group_security_group;grStroke=0;strokeColor=#248814;fillColor=#E9F3E6;verticalAlign=top;align=left;spacingLeft=30;fontColor=#248814;dashed=0;" parent="1" vertex="1">
          <mxGeometry x="460" y="360" width="260" height="290" as="geometry" />
        </mxCell>
        <mxCell id="CrH-1scPD4Wo0NsQhDlx-11" value="Database VPC&#xa;10.0.0.0/16" style="text;whiteSpace=wrap;align=center;fontSize=20;" parent="1" vertex="1">
          <mxGeometry x="-86" y="239" width="178" height="70" as="geometry" />
        </mxCell>
        <mxCell id="CrH-1scPD4Wo0NsQhDlx-13" value="" style="sketch=0;outlineConnect=0;fontColor=#232F3E;gradientColor=none;fillColor=#8C4FFF;strokeColor=none;dashed=0;verticalLabelPosition=bottom;verticalAlign=top;align=center;html=1;fontSize=12;fontStyle=0;aspect=fixed;pointerEvents=1;shape=mxgraph.aws4.route_table;" parent="1" vertex="1">
          <mxGeometry x="98.69" y="360" width="51.31" height="50" as="geometry" />
        </mxCell>
        <mxCell id="CrH-1scPD4Wo0NsQhDlx-49" value="" style="sketch=0;outlineConnect=0;fontColor=#232F3E;gradientColor=none;fillColor=#ED7100;strokeColor=none;dashed=0;verticalLabelPosition=bottom;verticalAlign=top;align=center;html=1;fontSize=12;fontStyle=0;aspect=fixed;pointerEvents=1;shape=mxgraph.aws4.instance2;" parent="1" vertex="1">
          <mxGeometry x="550" y="455" width="70" height="70" as="geometry" />
        </mxCell>
        <mxCell id="CrH-1scPD4Wo0NsQhDlx-56" value="VPC" style="points=[[0,0],[0.25,0],[0.5,0],[0.75,0],[1,0],[1,0.25],[1,0.5],[1,0.75],[1,1],[0.75,1],[0.5,1],[0.25,1],[0,1],[0,0.75],[0,0.5],[0,0.25]];outlineConnect=0;gradientColor=none;html=1;whiteSpace=wrap;fontSize=12;fontStyle=0;container=0;pointerEvents=0;collapsible=0;recursiveResize=0;shape=mxgraph.aws4.group;grIcon=mxgraph.aws4.group_vpc;strokeColor=#248814;fillColor=none;verticalAlign=top;align=left;spacingLeft=30;fontColor=#AAB7B8;dashed=0;" parent="1" vertex="1">
          <mxGeometry x="440" y="230" width="300" height="440" as="geometry" />
        </mxCell>
        <mxCell id="CrH-1scPD4Wo0NsQhDlx-57" value="" style="sketch=0;points=[[0,0,0],[0.25,0,0],[0.5,0,0],[0.75,0,0],[1,0,0],[0,1,0],[0.25,1,0],[0.5,1,0],[0.75,1,0],[1,1,0],[0,0.25,0],[0,0.5,0],[0,0.75,0],[1,0.25,0],[1,0.5,0],[1,0.75,0]];outlineConnect=0;fontColor=#232F3E;fillColor=#8C4FFF;strokeColor=#ffffff;dashed=0;verticalLabelPosition=bottom;verticalAlign=top;align=center;html=1;fontSize=12;fontStyle=0;aspect=fixed;shape=mxgraph.aws4.resourceIcon;resIcon=mxgraph.aws4.vpc;container=0;" parent="1" vertex="1">
          <mxGeometry x="678" y="240" width="52" height="52" as="geometry" />
        </mxCell>
        <mxCell id="CrH-1scPD4Wo0NsQhDlx-58" value="US West (Oregon)&#xa;us-west-2" style="text;whiteSpace=wrap;" parent="1" vertex="1">
          <mxGeometry x="460" y="190" width="130" height="50" as="geometry" />
        </mxCell>
        <mxCell id="CrH-1scPD4Wo0NsQhDlx-63" value="Web VPC&#xa;192.168.0.0/16" style="text;whiteSpace=wrap;align=center;fontSize=20;" parent="1" vertex="1">
          <mxGeometry x="484" y="239" width="178" height="70" as="geometry" />
        </mxCell>
        <mxCell id="CrH-1scPD4Wo0NsQhDlx-64" value="" style="sketch=0;outlineConnect=0;fontColor=#232F3E;gradientColor=none;fillColor=#8C4FFF;strokeColor=none;dashed=0;verticalLabelPosition=bottom;verticalAlign=top;align=center;html=1;fontSize=12;fontStyle=0;aspect=fixed;pointerEvents=1;shape=mxgraph.aws4.route_table;" parent="1" vertex="1">
          <mxGeometry x="667.69" y="360" width="51.31" height="50" as="geometry" />
        </mxCell>
        <mxCell id="CrH-1scPD4Wo0NsQhDlx-66" value="" style="sketch=0;outlineConnect=0;fontColor=#232F3E;gradientColor=none;fillColor=#8C4FFF;strokeColor=none;dashed=0;verticalLabelPosition=bottom;verticalAlign=top;align=center;html=1;fontSize=12;fontStyle=0;aspect=fixed;pointerEvents=1;shape=mxgraph.aws4.peering;" parent="1" vertex="1">
          <mxGeometry x="280" y="300" width="60" height="60" as="geometry" />
        </mxCell>
        <mxCell id="CrH-1scPD4Wo0NsQhDlx-67" value="&lt;font style=&quot;font-size: 14px;&quot;&gt;Peering Connection&lt;/font&gt;" style="text;html=1;align=center;verticalAlign=middle;resizable=0;points=[];autosize=1;strokeColor=none;fillColor=none;" parent="1" vertex="1">
          <mxGeometry x="235" y="270" width="150" height="30" as="geometry" />
        </mxCell>
        <mxCell id="CrH-1scPD4Wo0NsQhDlx-69" value="" style="endArrow=classic;html=1;rounded=0;strokeWidth=2;strokeColor=#FF9933;" parent="1" edge="1">
          <mxGeometry width="50" height="50" relative="1" as="geometry">
            <mxPoint x="280" y="329.5" as="sourcePoint" />
            <mxPoint x="170" y="329.5" as="targetPoint" />
          </mxGeometry>
        </mxCell>
        <mxCell id="CrH-1scPD4Wo0NsQhDlx-70" value="" style="endArrow=classic;html=1;rounded=0;strokeWidth=2;strokeColor=#FF9933;" parent="1" edge="1">
          <mxGeometry width="50" height="50" relative="1" as="geometry">
            <mxPoint x="339.99931821280825" y="329.5" as="sourcePoint" />
            <mxPoint x="440" y="329.5" as="targetPoint" />
          </mxGeometry>
        </mxCell>
        <mxCell id="CrH-1scPD4Wo0NsQhDlx-71" value="" style="endArrow=classic;startArrow=classic;html=1;rounded=0;dashed=1;fillColor=#dae8fc;strokeColor=#6c8ebf;strokeWidth=2;" parent="1" source="CrH-1scPD4Wo0NsQhDlx-55" target="CrH-1scPD4Wo0NsQhDlx-49" edge="1">
          <mxGeometry width="50" height="50" relative="1" as="geometry">
            <mxPoint x="310" y="480" as="sourcePoint" />
            <mxPoint x="370" y="500" as="targetPoint" />
            <Array as="points">
              <mxPoint x="170" y="540" />
              <mxPoint x="310" y="550" />
              <mxPoint x="440" y="540" />
            </Array>
          </mxGeometry>
        </mxCell>
        <mxCell id="CrH-1scPD4Wo0NsQhDlx-72" value="&lt;font style=&quot;font-size: 14px;&quot;&gt;Connectivity&lt;/font&gt;" style="text;html=1;align=center;verticalAlign=middle;resizable=0;points=[];autosize=1;strokeColor=none;fillColor=none;" parent="1" vertex="1">
          <mxGeometry x="260" y="550" width="100" height="30" as="geometry" />
        </mxCell>
        <mxCell id="CrH-1scPD4Wo0NsQhDlx-55" value="" style="outlineConnect=0;dashed=0;verticalLabelPosition=bottom;verticalAlign=top;align=center;html=1;shape=mxgraph.aws3.rds;fillColor=#2E73B8;gradientColor=none;" parent="1" vertex="1">
          <mxGeometry x="-11.5" y="455" width="62" height="71" as="geometry" />
        </mxCell>
      </root>
    </mxGraphModel>
  </diagram>
</mxfile>
